<svg width="256" height="256" viewBox="0 0 256 256" xmlns="http://www.w3.org/2000/svg" role="img" aria-label="SuiteEase logo">
  <rect x="8" y="8" width="240" height="240" rx="44" fill="#9E160A"/>
  <path
    d="M73 109.5L122.8 62.4C126 59.3 131 59.3 134.2 62.4L183.9 109.5C189.5 114.7 185.7 124 178.1 124H168V188.3C168 194.2 163.2 199 157.3 199H98.7C92.8 199 88 194.2 88 188.3V124H77.9C70.3 124 66.5 114.7 73 109.5Z"
    fill="#FFFFFF"
  />
  <rect x="102" y="75" width="11" height="33" rx="4" fill="#FFFFFF"/>
  <path
    d="M128 168.8L124.1 165.1C103.2 145.8 89 133.1 89 117.4C89 104.7 99.2 94.5 111.9 94.5C119.2 94.5 126.2 98 130.7 103.4C135.2 98 142.2 94.5 149.5 94.5C162.2 94.5 172.4 104.7 172.4 117.4C172.4 133.1 158.2 145.8 137.3 165.1L133.4 168.8C131.8 170.3 129.4 170.3 128 168.8Z"
    fill="#9E160A"
  />
</svg>
